<svg width="21" height="22" viewBox="0 0 21 22" fill="none" xmlns="http://www.w3.org/2000/svg">
<path d="M0 19.5232V11.5137H8.00953V19.5232H0ZM2.00238 17.5209H6.00715V13.5161H2.00238V17.5209ZM3.50417 9.01073L9.01073 0L14.5173 9.01073H3.50417ZM7.0584 7.00834H10.9631L9.01073 3.85459L7.0584 7.00834ZM19.5983 21.9762L16.9452 19.323C16.5948 19.5566 16.2151 19.7318 15.8063 19.8486C15.3975 19.9654 14.9678 20.0238 14.5173 20.0238C13.2658 20.0238 12.202 19.5858 11.326 18.7098C10.4499 17.8337 10.0119 16.77 10.0119 15.5185C10.0119 14.267 10.4499 13.2032 11.326 12.3272C12.202 11.4511 13.2658 11.0131 14.5173 11.0131C15.7688 11.0131 16.8325 11.4511 17.7086 12.3272C18.5846 13.2032 19.0226 14.267 19.0226 15.5185C19.0226 15.9523 18.9642 16.3737 18.8474 16.7825C18.7306 17.1913 18.5638 17.5709 18.3468 17.9213L21 20.5745L19.5983 21.9762ZM14.5173 18.0215C15.2181 18.0215 15.8105 17.7795 16.2944 17.2956C16.7783 16.8117 17.0203 16.2193 17.0203 15.5185C17.0203 14.8176 16.7783 14.2253 16.2944 13.7414C15.8105 13.2575 15.2181 13.0155 14.5173 13.0155C13.8164 13.0155 13.2241 13.2575 12.7402 13.7414C12.2563 14.2253 12.0143 14.8176 12.0143 15.5185C12.0143 16.2193 12.2563 16.8117 12.7402 17.2956C13.2241 17.7795 13.8164 18.0215 14.5173 18.0215Z" fill="white"/>
</svg>
