<svg width="16" height="20" viewBox="0 0 16 20" fill="none" xmlns="http://www.w3.org/2000/svg">
<path d="M5.9 13.5L8 11.4L10.1 13.5L11.5 12.1L9.4 10L11.5 7.9L10.1 6.5L8 8.6L5.9 6.5L4.5 7.9L6.6 10L4.5 12.1L5.9 13.5ZM8 20C5.68333 19.4167 3.77083 18.0875 2.2625 16.0125C0.754167 13.9375 0 11.6333 0 9.1V3L8 0L16 3V9.1C16 11.6333 15.2458 13.9375 13.7375 16.0125C12.2292 18.0875 10.3167 19.4167 8 20ZM8 17.9C9.73333 17.35 11.1667 16.25 12.3 14.6C13.4333 12.95 14 11.1167 14 9.1V4.375L8 2.125L2 4.375V9.1C2 11.1167 2.56667 12.95 3.7 14.6C4.83333 16.25 6.26667 17.35 8 17.9Z" fill="white" fill-opacity="0.83"/>
</svg>
