<svg width="18" height="17" viewBox="0 0 18 17" fill="none" xmlns="http://www.w3.org/2000/svg">
<path d="M1.85516 2.31982C3.18104 0.867126 4.81173 0.0966153 6.74723 0.00828263C8.68273 -0.08005 10.3768 0.538723 11.8295 1.8646C12.9966 2.92984 13.7279 4.2232 14.0235 5.74468C14.1205 6.24447 14.1641 6.73836 14.154 7.22635C14.1171 9.02288 14.3348 10.9789 15.662 12.1903L17.3694 13.7487C17.5805 13.9414 17.6923 14.1742 17.7048 14.4473C17.7172 14.7205 17.6271 14.9625 17.4345 15.1736L16.0746 16.6636C15.8819 16.8746 15.6491 16.9864 15.376 16.9989C15.1029 17.0113 14.8608 16.9212 14.6497 16.7286L12.9353 15.1638C11.6113 13.9555 9.64855 13.9104 7.86713 14.1089C7.38389 14.1627 6.88906 14.1652 6.38266 14.1163C4.83492 13.9668 3.47749 13.3594 2.31037 12.2942C0.857685 10.9683 0.0900079 9.33449 0.00734112 7.39279C-0.0753256 5.45108 0.540615 3.76009 1.85516 2.31982ZM3.3451 3.67969C2.40452 4.71023 1.96282 5.91731 2.02002 7.30093C2.07722 8.68455 2.6273 9.85231 3.67025 10.8042C4.70079 11.7448 5.9107 12.1834 7.29999 12.12C8.68927 12.0566 9.85421 11.5096 10.7948 10.4791C11.7467 9.43612 12.1881 8.2231 12.1191 6.84003C12.05 5.45695 11.5002 4.29512 10.4696 3.35454C9.42668 2.40263 8.2165 1.9581 6.83909 2.02096C5.46167 2.08383 4.29701 2.63674 3.3451 3.67969Z" fill="#D9D9D9"/>
</svg>
